HIERARCHY
ROOT ui
{
	 OFFSET 0 0 0
	 CHANNELS 3 XPosition YPosition Z Position
	 EndSite
	 {
	 OFFSET 0 -1 0
	 }
}
ROOT li
{
	 OFFSET 0 0 0
	 CHANNELS 3 XPosition YPosition Z Position
	 EndSite
	 {
	 OFFSET 0 -1 0
	 }
}
ROOT ul
{
	 OFFSET 0 0 0
	 CHANNELS 3 XPosition YPosition Z Position
	 EndSite
	 {
	 OFFSET 0 -1 0
	 }
}
ROOT ll
{
	 OFFSET 0 0 0
	 CHANNELS 3 XPosition YPosition Z Position
	 EndSite
	 {
	 OFFSET 0 -1 0
	 }
}
ROOT tt
{
	 OFFSET 0 0 0
	 CHANNELS 3 XPosition YPosition Z Position
	 EndSite
	 {
	 OFFSET 0 -1 0
	 }
}
ROOT tb
{
	 OFFSET 0 0 0
	 CHANNELS 3 XPosition YPosition Z Position
	 EndSite
	 {
	 OFFSET 0 -1 0
	 }
}
ROOT td
{
	 OFFSET 0 0 0
	 CHANNELS 3 XPosition YPosition Z Position
	 EndSite
	 {
	 OFFSET 0 -1 0
	 }
}
ROOT v
{
	 OFFSET 0 0 0
	 CHANNELS 3 XPosition YPosition Z Position
	 EndSite
	 {
	 OFFSET 0 -1 0
	 }
}
ROOT bn
{
	 OFFSET 0 0 0
	 CHANNELS 3 XPosition YPosition Z Position
	 EndSite
	 {
	 OFFSET 0 -1 0
	 }
}
MOTION
Frames: 16
Frame Time: 0.002
0.003069421052932739	-0.002134135961532593	0		0.53174169921875	-2.456634765625	0		-1.174229248046875	-0.02005025863647461	0		-0.6277408447265626	-2.740783203125	0		1.423686767578125	-1.1292110595703124	0		2.91208349609375	-0.10194462585449218	0		4.4758603515625	0.2043683319091797	0		5.84942919921875	0.5094710388183594	0		-0.4137510070800781	5.8662724609375	0		
0.007744711875915527	0.004871078014373779	0		0.5072469482421875	-2.4485361328125	0		-1.1635130615234375	-0.00855184268951416	0		-0.6362991333007812	-2.726324462890625	0		1.4247684326171874	-1.1268536376953124	0		2.901537109375	-0.11015557098388672	0		4.47860986328125	0.20723989868164064	0		5.84718896484375	0.5393645629882813	0		-0.27907901000976565	5.885896484375	0		
0.006374218940734863	0.004936622142791748	0		0.54472802734375	-2.448222900390625	0		-1.1010501708984375	-0.020759258270263672	0		-0.6060260009765625	-2.73138037109375	0		1.4198250732421875	-1.1304178466796875	0		2.933160888671875	-0.10788249206542969	0		4.47327001953125	0.200247314453125	0		5.84554296875	0.5399179077148437	0		-0.2776737060546875	5.8860966796875	0		
-0.0010442069768905639	-0.001927230954170227	0		0.48833062744140626	-2.4446904296875	0		-1.178366943359375	-0.018183446884155272	0		-0.6116370239257812	-2.734005615234375	0		1.41290283203125	-1.1369384765625	0		2.925771240234375	-0.11007945251464844	0		4.476099609375	0.20321484375	0		5.84461474609375	0.5354109497070313	0		-0.2763213195800781	5.88628076171875	0		
-0.0023208179473876954	-0.0018785220384597778	0		0.5389063720703124	-2.4515849609375	0		-1.1036715087890625	-0.019673294067382812	0		-0.649053955078125	-2.730208740234375	0		1.4111337890625	-1.1375030517578124	0		2.917309814453125	-0.1212027587890625	0		4.481828125	0.19522528076171874	0		5.840068359375	0.5156564331054687	0		-0.2760297241210937	5.8874619140625	0		
-0.0035391418933868406	-0.0018382110595703124	0		0.4956768493652344	-2.452182861328125	0		-1.1768328857421875	-0.014159745216369628	0		-0.638488037109375	-2.737088134765625	0		1.41635107421875	-1.14513916015625	0		2.905958251953125	-0.1282128143310547	0		4.48256201171875	0.18440556335449218	0		5.8399052734375	0.5081101684570313	0		-0.2728699035644531	5.88558544921875	0		
0.020231662750244142	-0.007169318199157715	0		0.5495691528320312	-2.45415673828125	0		-1.16296337890625	-0.011898604393005371	0		-0.6355965576171875	-2.73088623046875	0		1.4218924560546875	-1.1367498779296874	0		2.940044677734375	-0.10980105590820312	0		4.49068212890625	0.19659677124023436	0		5.85403955078125	0.49859527587890623	0		-0.2707950439453125	5.88470654296875	0		
3.282279968261719E-4	0.00513292407989502	0		0.5097770385742187	-2.44375634765625	0		-1.10714599609375	-0.0183142147064209	0		-0.6196566772460937	-2.73190478515625	0		1.426364501953125	-1.140312744140625	0		2.92086572265625	-0.11453916168212891	0		4.4816845703125	0.1961630859375	0		5.84130126953125	0.51973095703125	0		-0.2717770690917969	5.88685791015625	0		
-0.003738735914230347	0.0012031350135803223	0		0.530857421875	-2.45224658203125	0		-1.1081597900390625	-0.017933696746826173	0		-0.6575093994140625	-2.729131591796875	0		1.4118992919921876	-1.146548583984375	0		2.9276669921875	-0.12557657623291016	0		4.4776484375	0.18879061889648438	0		5.83398974609375	0.4873486938476562	0		-0.27088949584960936	5.88696923828125	0		
-0.001606706976890564	0.0051809391975402835	0		0.48616885375976565	-2.454708251953125	0		-1.10909521484375	-0.017585859298706055	0		-0.624288330078125	-2.732459716796875	0		1.4285693359375	-1.151217041015625	0		2.920669677734375	-0.12831492614746093	0		4.4767734375	0.1875055236816406	0		5.83333203125	0.48443988037109376	0		-0.284252685546875	5.877291015625	0		
0.016416114807128908	-0.003092725992202759	0		0.510621826171875	-2.4582216796875	0		-1.1859239501953125	-0.015065350532531739	0		-0.6479182739257813	-2.7359208984375	0		1.4094820556640626	-1.147283447265625	0		2.9347685546875	-0.13029605102539063	0		4.48882861328125	0.17714706420898438	0		5.83567431640625	0.49555459594726564	0		-0.4027129821777344	5.86827587890625	0		
8.274449706077576E-4	0.008171574592590332	0		0.487407470703125	-2.4499609375	0		-1.0985447998046876	-0.006172062873840332	0		-0.6221882934570313	-2.72717431640625	0		1.4135408935546876	-1.1416678466796875	0		2.937051025390625	-0.12600761413574219	0		4.4863291015625	0.19014852905273438	0		5.8351328125	0.49322573852539064	0		-0.26877688598632815	5.88726025390625	0		
0.02107828712463379	0.0038626370429992677	0		0.5360763549804688	-2.4588427734375	0		-1.187380126953125	-0.014477251052856445	0		-0.6604030151367187	-2.724410400390625	0		1.4095711669921875	-1.1448812255859375	0		2.936341552734375	-0.12658818817138673	0		4.491798828125	0.19614605712890626	0		5.83277783203125	0.531044189453125	0		-0.268231201171875	5.8873486328125	0		
-0.004502377986907959	0.005305837154388428	0		0.4981783752441406	-2.44929736328125	0		-1.1120106201171875	-0.01647450637817383	0		-0.592627197265625	-2.732387939453125	0		1.419808349609375	-1.14228466796875	0		2.940601318359375	-0.13417088317871093	0		4.49688720703125	0.17426422119140625	0		5.8358154296875	0.5135501708984375	0		-0.26775527954101563	5.88743359375	0		
-0.011140013694763183	-0.0015549089908599855	0		0.49726678466796875	-2.449338623046875	0		-1.1885091552734375	-0.013997801780700684	0		-0.6634909057617188	-2.72609375	0		1.402956787109375	-1.1512049560546875	0		2.928025390625	-0.13639985656738282	0		4.49152490234375	0.18167070007324218	0		5.83544775390625	0.5120140991210937	0		-0.40067483520507813	5.86872607421875	0		
0.0013087979555130005	-0.007732376098632813	0		0.5053335266113281	-2.458517578125	0		-1.188959716796875	-0.013798500061035156	0		-0.6154506225585937	-2.734785400390625	0		1.405401611328125	-1.148408203125	0		2.9365068359375	-0.13990988159179688	0		4.49906640625	0.17896495056152345	0		5.83218359375	0.4969866027832031	0		-0.2660103454589844	5.8865712890625	0		
